<svg version="1.1" id="Qloud-AMP" xmlns="http://www.w3.org/2000/svg" xmlns:xlink="http://www.w3.org/1999/xlink" viewBox="0 0 75 50" xml:space="preserve">
<style type="text/css">
	.st0{fill:#0099CC;}
	.st1{fill:#006699;}
</style>
<title>Qloud-AMP</title>
<g id="QloudAMP">
	<g id="AMP">
		<path id="A" class="st0" d="M33.5,40.4h-4.4l-0.6,2.1h-4L29.2,30h4.3l4.7,12.5h-4.1L33.5,40.4z M32.7,37.7l-1.4-4.5L30,37.7H32.7z
			"/>
		<path id="M" class="st0" d="M39.4,30h5.1l2,7.6l2-7.6h5.1v12.5h-3.2v-9.6l-2.4,9.5H45l-2.5-9.5v9.5h-3.2V30z"/>
		<path id="P" class="st0" d="M55.9,30h6.4c1.1-0.1,2.3,0.3,3.2,1c0.7,0.8,1.1,1.8,1,2.8c0.1,1.1-0.3,2.2-1.1,3
			c-1,0.8-2.2,1.2-3.5,1.1h-2.1v4.7h-3.9V30z M59.8,35.3h1c0.6,0.1,1.1-0.1,1.6-0.4c0.3-0.2,0.5-0.6,0.4-1c0-0.4-0.1-0.7-0.4-1
			c-0.4-0.3-1-0.5-1.5-0.4h-1.1L59.8,35.3z"/>
	</g>
	<path id="Qloud" class="st1" d="M20.5,38c-7.2-2.2-11.3-9.8-9.1-17s9.8-11.3,17-9.1c6.3,1.9,10.3,8.1,9.6,14.6H42
		c0-0.5,0.1-1,0.1-1.5c0-9.7-7.8-17.5-17.5-17.5C14.9,7.4,7.1,15.2,7,24.9c0,8.1,5.6,15.2,13.5,17.1L20.5,38z"/>
</g>
</svg>
