<svg id="Qloud-Auth" xmlns="http://www.w3.org/2000/svg" viewBox="0 0 75 50">
<style type="text/css">
	.st0{fill:#0099CC;}
	.st1{fill:#006699;}
</style>
<g id="QloudAuth">
	<g id="Auth">
		<path id="A" class="st0" d="M33.7,40.3h-4.4l-0.6,2.1h-4l4.7-12.5h4.2l4.7,12.5h-4L33.7,40.3z M32.9,37.6l-1.4-4.5l-1.4,4.5H32.9z
			"/>
		<path id="u" class="st0" d="M48.7,42.4h-3.2v-1.5c-0.4,0.5-0.9,1-1.5,1.3s-1.2,0.4-1.8,0.4c-0.8,0-1.7-0.3-2.2-0.9
			c-0.6-0.7-0.9-1.7-0.8-2.6v-5.8h3.5v5c0,0.4,0.1,0.9,0.3,1.2c0.2,0.2,0.6,0.4,0.9,0.4c0.4,0,0.8-0.2,1-0.5
			c0.3-0.5,0.5-1.1,0.4-1.7v-4.4h3.5v9.1H48.7z"/>
		<path id="t" class="st0" d="M55.1,29.9v3.4H57v2.5h-1.9V39c0,0.3,0,0.5,0.1,0.8c0.1,0.2,0.4,0.3,0.6,0.3c0.4,0,0.7-0.1,1.1-0.2
			l0.3,2.4c-0.8,0.2-1.6,0.3-2.4,0.3c-0.7,0.1-1.3,0-1.9-0.3c-0.4-0.2-0.7-0.6-0.9-1c-0.2-0.7-0.3-1.5-0.3-2.2v-3.2h-1.3v-2.5h1.3
			v-1.7L55.1,29.9z"/>
		<path id="h" class="st0" d="M58.6,29.9h3.5v4.6c0.4-0.4,0.9-0.8,1.4-1s1.1-0.3,1.7-0.3c0.8,0,1.6,0.3,2.2,0.9
			c0.6,0.7,0.9,1.7,0.8,2.7v5.8h-3.5v-5c0-0.4-0.1-0.9-0.3-1.2c-0.2-0.2-0.6-0.4-0.9-0.3c-0.4,0-0.8,0.2-1,0.5
			c-0.3,0.5-0.5,1.1-0.4,1.7v4.4h-3.5C58.6,42.7,58.6,29.9,58.6,29.9z"/>
	</g>
	<path id="Qloud" class="st1" d="M20.7,37.9c-7.2-2.2-11.3-9.8-9.1-17s9.8-11.3,17-9.1c6.3,1.9,10.3,8.1,9.6,14.6h3.9
		c0-0.5,0.1-1,0.1-1.5c0-9.7-7.8-17.5-17.5-17.5S7.2,15.2,7.2,24.9c0,8.1,5.6,15.2,13.5,17.1V37.9z"/>
</g>
</svg>
