<svg id="Qloud-Flow" xmlns="http://www.w3.org/2000/svg" viewBox="0 0 75 50">
<style type="text/css">
	.st0{fill:#0099CC;}
	.st1{fill:#006699;}
</style>
<title>qloudFlow-logo</title>
<g id="QloudAuth">
	<path class="st0" d="M25.6,29.7h9.8v2.8h-5.9v2.2h5v2.6h-5v5.3h-4L25.6,29.7z"/>
	<path class="st0" d="M37.7,29.7h3.6v12.9h-3.6V29.7z"/>
	<path class="st0" d="M43.1,38c0-1.3,0.5-2.6,1.4-3.5c1.1-1,2.5-1.5,3.9-1.4c1.6-0.1,3.1,0.5,4.2,1.6c1.6,2,1.5,4.9-0.3,6.8
		c-1.1,1-2.5,1.5-4,1.4c-1.3,0.1-2.6-0.3-3.6-1.1C43.7,40.8,43,39.4,43.1,38z M46.7,38c-0.1,0.7,0.1,1.3,0.5,1.8
		c0.6,0.7,1.6,0.8,2.3,0.2c0.1-0.1,0.1-0.1,0.2-0.2c0.4-0.6,0.6-1.2,0.5-1.9c0.1-0.6-0.1-1.3-0.5-1.8c-0.3-0.4-0.8-0.6-1.2-0.6
		c-0.5,0-1,0.2-1.3,0.6C46.8,36.7,46.6,37.3,46.7,38L46.7,38z"/>
	<path class="st0" d="M54.2,33.3h3.5l1.5,5.9l1.9-5.9h3.2l2,5.9l1.5-5.9h3.4l-3.5,9.3h-3.2L62.7,37l-1.9,5.6h-3.2L54.2,33.3z"/>
	<path id="Qloud" class="st1" d="M21.5,37.6c-7.2-2.2-11.3-9.8-9.1-17s9.8-11.3,17-9.1c6.3,1.9,10.3,8,9.6,14.6h3.9
		c0-0.5,0.1-1,0.1-1.5C43,15,35.2,7.1,25.5,7.1S8,15,8,24.6c0,8.1,5.6,15.2,13.5,17.1V37.6z"/>
</g>
</svg>
